<svg width="450" height="140" viewBox="0 0 450 140" fill="none" xmlns="http://www.w3.org/2000/svg">
<mask id="mask0_3299_618" style="mask-type:alpha" maskUnits="userSpaceOnUse" x="0" y="0" width="141" height="140">
<ellipse cx="70.2853" cy="70" rx="70.2853" ry="70" fill="#989EDD"/>
</mask>
<g mask="url(#mask0_3299_618)">
<ellipse cx="70.2853" cy="70" rx="70.2853" ry="70" fill="#383F8C"/>
<ellipse cx="91.2" cy="45" rx="59.1297" ry="59" fill="#E57735"/>
<ellipse cx="112.348" cy="16" rx="54.2201" ry="54" fill="#F2AA29"/>
</g>
<path d="M182.563 101V39.9092H206.666C211.299 39.9092 215.247 40.7941 218.508 42.564C221.769 44.314 224.255 46.7501 225.965 49.8722C227.696 52.9745 228.561 56.5541 228.561 60.6109C228.561 64.6677 227.686 68.2472 225.936 71.3495C224.186 74.4518 221.65 76.868 218.329 78.5981C215.028 80.3282 211.031 81.1933 206.338 81.1933H190.975V70.8424H204.25C206.735 70.8424 208.784 70.4149 210.394 69.5597C212.025 68.6847 213.238 67.4816 214.034 65.9504C214.849 64.3992 215.257 62.6194 215.257 60.6109C215.257 58.5825 214.849 56.8126 214.034 55.3012C213.238 53.77 212.025 52.5867 210.394 51.7515C208.764 50.8964 206.696 50.4688 204.19 50.4688H195.48V101H182.563Z" fill="#212B45"/>
<path d="M248.546 101.865C245.623 101.865 243.018 101.358 240.731 100.344C238.444 99.3098 236.634 97.7884 235.302 95.7799C233.99 93.7515 233.333 91.2259 233.333 88.2032C233.333 85.6578 233.801 83.52 234.735 81.7899C235.67 80.0598 236.943 78.6677 238.554 77.6137C240.164 76.5597 241.994 75.7643 244.042 75.2274C246.11 74.6904 248.278 74.3126 250.545 74.0938C253.21 73.8154 255.358 73.5569 256.988 73.3183C258.619 73.0597 259.802 72.6819 260.538 72.1847C261.274 71.6876 261.642 70.9518 261.642 69.9774V69.7984C261.642 67.9092 261.045 66.4475 259.852 65.4134C258.679 64.3793 257.008 63.8623 254.84 63.8623C252.554 63.8623 250.734 64.3694 249.382 65.3836C248.029 66.3779 247.134 67.6308 246.697 69.1421L234.944 68.1876C235.541 65.4035 236.714 62.9972 238.464 60.9688C240.214 58.9205 242.471 57.3495 245.235 56.2558C248.019 55.1421 251.241 54.5853 254.9 54.5853C257.446 54.5853 259.882 54.8836 262.208 55.4802C264.555 56.0768 266.633 57.0015 268.443 58.2543C270.272 59.5072 271.714 61.118 272.768 63.0867C273.822 65.0356 274.349 67.3722 274.349 70.0967V101H262.298V94.6464H261.94C261.204 96.0782 260.22 97.341 258.987 98.4348C257.754 99.5086 256.272 100.354 254.542 100.97C252.812 101.567 250.813 101.865 248.546 101.865ZM252.186 93.0953C254.055 93.0953 255.706 92.7274 257.137 91.9916C258.569 91.2359 259.693 90.2217 260.508 88.949C261.323 87.6762 261.731 86.2345 261.731 84.6237V79.7615C261.333 80.02 260.786 80.2586 260.09 80.4774C259.414 80.6762 258.649 80.8651 257.794 81.0441C256.938 81.2032 256.083 81.3524 255.228 81.4916C254.373 81.6109 253.598 81.7203 252.902 81.8197C251.41 82.0384 250.108 82.3865 248.994 82.8637C247.88 83.341 247.015 83.9873 246.399 84.8027C245.782 85.5981 245.474 86.5924 245.474 87.7856C245.474 89.5157 246.1 90.8382 247.353 91.7529C248.626 92.6478 250.237 93.0953 252.186 93.0953Z" fill="#212B45"/>
<path d="M304.909 101.895C300.216 101.895 296.179 100.901 292.799 98.912C289.438 96.9035 286.853 94.1194 285.043 90.5598C283.253 87.0001 282.358 82.9035 282.358 78.27C282.358 73.5768 283.263 69.4603 285.073 65.9205C286.902 62.3609 289.497 59.5867 292.858 57.5981C296.219 55.5896 300.216 54.5853 304.85 54.5853C308.847 54.5853 312.347 55.3112 315.35 56.7629C318.353 58.2146 320.729 60.2529 322.479 62.8779C324.229 65.5029 325.193 68.5853 325.372 72.1251H313.381C313.043 69.8382 312.148 67.9987 310.696 66.6066C309.264 65.1947 307.385 64.4887 305.059 64.4887C303.09 64.4887 301.37 65.0257 299.898 66.0995C298.446 67.1535 297.313 68.6947 296.497 70.7231C295.682 72.7515 295.274 75.2075 295.274 78.091C295.274 81.0143 295.672 83.5001 296.468 85.5484C297.283 87.5967 298.426 89.1578 299.898 90.2316C301.37 91.3055 303.09 91.8424 305.059 91.8424C306.51 91.8424 307.813 91.5441 308.966 90.9475C310.139 90.3509 311.104 89.4859 311.86 88.3524C312.635 87.199 313.142 85.8169 313.381 84.2061H325.372C325.174 87.7061 324.219 90.7884 322.509 93.4532C320.818 96.0981 318.482 98.1663 315.499 99.6578C312.516 101.149 308.986 101.895 304.909 101.895Z" fill="#212B45"/>
<path d="M354.389 101.895C349.676 101.895 345.619 100.94 342.219 99.0313C338.838 97.1024 336.233 94.3779 334.403 90.858C332.574 87.3183 331.659 83.1322 331.659 78.2998C331.659 73.5867 332.574 69.4504 334.403 65.8907C336.233 62.3311 338.808 59.5569 342.129 57.5683C345.47 55.5796 349.388 54.5853 353.882 54.5853C356.905 54.5853 359.719 55.0725 362.324 56.047C364.949 57.0015 367.236 58.4433 369.185 60.3722C371.153 62.3012 372.685 64.7274 373.778 67.6507C374.872 70.5541 375.419 73.9546 375.419 77.8524V81.3424H336.73V73.4674H363.457C363.457 71.6379 363.06 70.0171 362.264 68.6052C361.469 67.1933 360.365 66.0896 358.953 65.2941C357.561 64.4788 355.94 64.0711 354.091 64.0711C352.162 64.0711 350.452 64.5186 348.96 65.4134C347.489 66.2884 346.335 67.4717 345.5 68.9632C344.665 70.4347 344.237 72.0754 344.217 73.885V81.3722C344.217 83.6393 344.635 85.5981 345.47 87.2487C346.325 88.8992 347.528 90.172 349.079 91.0669C350.631 91.9617 352.47 92.4092 354.598 92.4092C356.01 92.4092 357.302 92.2103 358.476 91.8126C359.649 91.4149 360.653 90.8183 361.489 90.0228C362.324 89.2274 362.96 88.2529 363.398 87.0995L375.15 87.8751C374.554 90.699 373.331 93.1649 371.481 95.2728C369.652 97.3609 367.285 98.9916 364.382 100.165C361.498 101.318 358.168 101.895 354.389 101.895Z" fill="#212B45"/>
<path d="M396.419 39.9092V101H383.712V39.9092H396.419Z" fill="#212B45"/>
<path d="M414.443 118.182C412.833 118.182 411.321 118.053 409.909 117.794C408.517 117.555 407.364 117.247 406.449 116.869L409.313 107.384C410.804 107.841 412.147 108.09 413.34 108.129C414.553 108.169 415.597 107.891 416.472 107.294C417.367 106.698 418.093 105.683 418.649 104.252L419.395 102.313L402.959 55.1819H416.323L425.809 88.8296H426.286L435.861 55.1819H449.314L431.506 105.952C430.651 108.418 429.487 110.565 428.016 112.395C426.564 114.244 424.725 115.666 422.497 116.661C420.27 117.675 417.585 118.182 414.443 118.182Z" fill="#212B45"/>
</svg>
